<svg width="188" height="188" viewBox="0 0 188 188" fill="none" xmlns="http://www.w3.org/2000/svg">
<g clip-path="url(#clip0_1127_3953)">
<g filter="url(#filter0_d_1127_3953)">
<circle cx="94" cy="94" r="94" fill="url(#paint0_radial_1127_3953)"/>
<circle cx="94" cy="94" r="94" fill="url(#paint1_radial_1127_3953)"/>
</g>
<g filter="url(#filter1_d_1127_3953)">
<path d="M73.7383 106.6C73.7383 107.124 73.9396 107.587 74.3422 107.989C74.7851 108.352 75.2884 108.533 75.852 108.533H91.3125L83.0387 130.637C82.6764 131.603 82.6965 132.388 83.0991 132.992C83.542 133.596 84.1459 133.918 84.9109 133.958C85.6759 133.958 86.3805 133.576 87.0247 132.811L111.906 101.467C112.47 100.903 112.752 100.299 112.752 99.6553C112.752 99.0916 112.53 98.6286 112.088 98.2662C111.645 97.8636 111.141 97.6623 110.578 97.6623H95.1777L103.391 75.619C103.753 74.6125 103.713 73.8072 103.27 73.2033C102.868 72.5994 102.284 72.2974 101.519 72.2974C100.794 72.2572 100.11 72.6397 99.4655 73.4449L74.5234 104.789C74 105.393 73.7383 105.996 73.7383 106.6ZM93.9698 155.881C93.3659 155.881 92.6412 155.7 91.7957 155.337C90.9904 155.015 90.2657 154.653 89.6215 154.25C78.2677 147.003 68.4238 139.414 60.0896 131.482C51.7957 123.51 45.3739 115.337 40.8244 106.963C36.2748 98.5481 34 90.0528 34 81.4771C34 76.1223 34.8455 71.2305 36.5365 66.8017C38.2677 62.3327 40.6633 58.4675 43.7232 55.2063C46.7831 51.9451 50.3462 49.4288 54.4127 47.6573C58.5194 45.8858 62.928 45 67.6387 45C73.5571 45 78.7509 46.5098 83.2199 49.5294C87.689 52.5491 91.2723 56.535 93.9698 61.4872C96.7076 56.4947 100.311 52.5088 104.78 49.5294C109.249 46.5098 114.423 45 120.301 45C125.052 45 129.46 45.8858 133.527 47.6573C137.634 49.4288 141.217 51.9451 144.277 55.2063C147.337 58.4675 149.712 62.3327 151.403 66.8017C153.134 71.2305 154 76.1223 154 81.4771C154 90.0528 151.725 98.5481 147.176 106.963C142.626 115.337 136.184 123.51 127.85 131.482C119.556 139.414 109.732 147.003 98.3785 154.25C97.7343 154.653 96.9894 155.015 96.1439 155.337C95.3387 155.7 94.614 155.881 93.9698 155.881Z" fill="black"/>
<path d="M73.7383 106.6C73.7383 107.124 73.9396 107.587 74.3422 107.989C74.7851 108.352 75.2884 108.533 75.852 108.533H91.3125L83.0387 130.637C82.6764 131.603 82.6965 132.388 83.0991 132.992C83.542 133.596 84.1459 133.918 84.9109 133.958C85.6759 133.958 86.3805 133.576 87.0247 132.811L111.906 101.467C112.47 100.903 112.752 100.299 112.752 99.6553C112.752 99.0916 112.53 98.6286 112.088 98.2662C111.645 97.8636 111.141 97.6623 110.578 97.6623H95.1777L103.391 75.619C103.753 74.6125 103.713 73.8072 103.27 73.2033C102.868 72.5994 102.284 72.2974 101.519 72.2974C100.794 72.2572 100.11 72.6397 99.4655 73.4449L74.5234 104.789C74 105.393 73.7383 105.996 73.7383 106.6ZM93.9698 155.881C93.3659 155.881 92.6412 155.7 91.7957 155.337C90.9904 155.015 90.2657 154.653 89.6215 154.25C78.2677 147.003 68.4238 139.414 60.0896 131.482C51.7957 123.51 45.3739 115.337 40.8244 106.963C36.2748 98.5481 34 90.0528 34 81.4771C34 76.1223 34.8455 71.2305 36.5365 66.8017C38.2677 62.3327 40.6633 58.4675 43.7232 55.2063C46.7831 51.9451 50.3462 49.4288 54.4127 47.6573C58.5194 45.8858 62.928 45 67.6387 45C73.5571 45 78.7509 46.5098 83.2199 49.5294C87.689 52.5491 91.2723 56.535 93.9698 61.4872C96.7076 56.4947 100.311 52.5088 104.78 49.5294C109.249 46.5098 114.423 45 120.301 45C125.052 45 129.46 45.8858 133.527 47.6573C137.634 49.4288 141.217 51.9451 144.277 55.2063C147.337 58.4675 149.712 62.3327 151.403 66.8017C153.134 71.2305 154 76.1223 154 81.4771C154 90.0528 151.725 98.5481 147.176 106.963C142.626 115.337 136.184 123.51 127.85 131.482C119.556 139.414 109.732 147.003 98.3785 154.25C97.7343 154.653 96.9894 155.015 96.1439 155.337C95.3387 155.7 94.614 155.881 93.9698 155.881Z" fill="url(#paint2_radial_1127_3953)"/>
</g>
</g>
<defs>
<filter id="filter0_d_1127_3953" x="-20" y="-15" width="228" height="228" filterUnits="userSpaceOnUse" color-interpolation-filters="sRGB">
<feFlood flood-opacity="0" result="BackgroundImageFix"/>
<feColorMatrix in="SourceAlpha" type="matrix" values="0 0 0 0 0 0 0 0 0 0 0 0 0 0 0 0 0 0 127 0" result="hardAlpha"/>
<feOffset dy="5"/>
<feGaussianBlur stdDeviation="10"/>
<feComposite in2="hardAlpha" operator="out"/>
<feColorMatrix type="matrix" values="0 0 0 0 0 0 0 0 0 0 0 0 0 0 0 0 0 0 0.25 0"/>
<feBlend mode="normal" in2="BackgroundImageFix" result="effect1_dropShadow_1127_3953"/>
<feBlend mode="normal" in="SourceGraphic" in2="effect1_dropShadow_1127_3953" result="shape"/>
</filter>
<filter id="filter1_d_1127_3953" x="14" y="30" width="160" height="150.881" filterUnits="userSpaceOnUse" color-interpolation-filters="sRGB">
<feFlood flood-opacity="0" result="BackgroundImageFix"/>
<feColorMatrix in="SourceAlpha" type="matrix" values="0 0 0 0 0 0 0 0 0 0 0 0 0 0 0 0 0 0 127 0" result="hardAlpha"/>
<feOffset dy="5"/>
<feGaussianBlur stdDeviation="10"/>
<feComposite in2="hardAlpha" operator="out"/>
<feColorMatrix type="matrix" values="0 0 0 0 0 0 0 0 0 0 0 0 0 0 0 0 0 0 0.25 0"/>
<feBlend mode="normal" in2="BackgroundImageFix" result="effect1_dropShadow_1127_3953"/>
<feBlend mode="normal" in="SourceGraphic" in2="effect1_dropShadow_1127_3953" result="shape"/>
</filter>
<radialGradient id="paint0_radial_1127_3953" cx="0" cy="0" r="1" gradientUnits="userSpaceOnUse" gradientTransform="rotate(45) scale(265.872)">
<stop stop-color="#6EFF3B"/>
<stop offset="1" stop-color="#3ADF00"/>
</radialGradient>
<radialGradient id="paint1_radial_1127_3953" cx="0" cy="0" r="1" gradientUnits="userSpaceOnUse" gradientTransform="translate(55.5 48) rotate(47.7525) scale(147.248)">
<stop stop-color="#6EFF3B"/>
<stop offset="1" stop-color="#30D158"/>
</radialGradient>
<radialGradient id="paint2_radial_1127_3953" cx="0" cy="0" r="1" gradientUnits="userSpaceOnUse" gradientTransform="translate(56.6492 57.0065) rotate(47.274) scale(126.766 133.308)">
<stop stop-color="white"/>
<stop offset="1" stop-color="#F1EEEE"/>
</radialGradient>
<clipPath id="clip0_1127_3953">
<rect width="188" height="188" fill="white"/>
</clipPath>
</defs>
</svg>
