<svg width="238" height="238" viewBox="0 0 238 238" fill="none" xmlns="http://www.w3.org/2000/svg">
<g clip-path="url(#clip0_1127_3954)">
<g filter="url(#filter0_d_1127_3954)">
<circle cx="119" cy="119" r="119" fill="url(#paint0_radial_1127_3954)"/>
</g>
<g filter="url(#filter1_d_1127_3954)">
<path d="M98.7383 131.6C98.7383 132.124 98.9396 132.587 99.3422 132.989C99.7851 133.352 100.288 133.533 100.852 133.533H116.313L108.039 155.637C107.676 156.603 107.697 157.388 108.099 157.992C108.542 158.596 109.146 158.918 109.911 158.958C110.676 158.958 111.38 158.576 112.025 157.811L136.906 126.467C137.47 125.903 137.752 125.299 137.752 124.655C137.752 124.092 137.53 123.629 137.088 123.266C136.645 122.864 136.141 122.662 135.578 122.662H120.178L128.391 100.619C128.753 99.6125 128.713 98.8072 128.27 98.2033C127.868 97.5994 127.284 97.2974 126.519 97.2974C125.794 97.2572 125.11 97.6397 124.466 98.4449L99.5234 129.789C99 130.393 98.7383 130.996 98.7383 131.6ZM118.97 180.881C118.366 180.881 117.641 180.7 116.796 180.337C115.99 180.015 115.266 179.653 114.622 179.25C103.268 172.003 93.4238 164.414 85.0896 156.482C76.7957 148.51 70.3739 140.337 65.8244 131.963C61.2748 123.548 59 115.053 59 106.477C59 101.122 59.8455 96.2305 61.5365 91.8017C63.2677 87.3327 65.6633 83.4675 68.7232 80.2063C71.7831 76.9451 75.3462 74.4288 79.4127 72.6573C83.5194 70.8858 87.928 70 92.6387 70C98.5571 70 103.751 71.5098 108.22 74.5294C112.689 77.5491 116.272 81.535 118.97 86.4872C121.708 81.4947 125.311 77.5088 129.78 74.5294C134.249 71.5098 139.423 70 145.301 70C150.052 70 154.46 70.8858 158.527 72.6573C162.634 74.4288 166.217 76.9451 169.277 80.2063C172.337 83.4675 174.712 87.3327 176.403 91.8017C178.134 96.2305 179 101.122 179 106.477C179 115.053 176.725 123.548 172.176 131.963C167.626 140.337 161.184 148.51 152.85 156.482C144.556 164.414 134.732 172.003 123.378 179.25C122.734 179.653 121.989 180.015 121.144 180.337C120.339 180.7 119.614 180.881 118.97 180.881Z" fill="black"/>
<path d="M98.7383 131.6C98.7383 132.124 98.9396 132.587 99.3422 132.989C99.7851 133.352 100.288 133.533 100.852 133.533H116.313L108.039 155.637C107.676 156.603 107.697 157.388 108.099 157.992C108.542 158.596 109.146 158.918 109.911 158.958C110.676 158.958 111.38 158.576 112.025 157.811L136.906 126.467C137.47 125.903 137.752 125.299 137.752 124.655C137.752 124.092 137.53 123.629 137.088 123.266C136.645 122.864 136.141 122.662 135.578 122.662H120.178L128.391 100.619C128.753 99.6125 128.713 98.8072 128.27 98.2033C127.868 97.5994 127.284 97.2974 126.519 97.2974C125.794 97.2572 125.11 97.6397 124.466 98.4449L99.5234 129.789C99 130.393 98.7383 130.996 98.7383 131.6ZM118.97 180.881C118.366 180.881 117.641 180.7 116.796 180.337C115.99 180.015 115.266 179.653 114.622 179.25C103.268 172.003 93.4238 164.414 85.0896 156.482C76.7957 148.51 70.3739 140.337 65.8244 131.963C61.2748 123.548 59 115.053 59 106.477C59 101.122 59.8455 96.2305 61.5365 91.8017C63.2677 87.3327 65.6633 83.4675 68.7232 80.2063C71.7831 76.9451 75.3462 74.4288 79.4127 72.6573C83.5194 70.8858 87.928 70 92.6387 70C98.5571 70 103.751 71.5098 108.22 74.5294C112.689 77.5491 116.272 81.535 118.97 86.4872C121.708 81.4947 125.311 77.5088 129.78 74.5294C134.249 71.5098 139.423 70 145.301 70C150.052 70 154.46 70.8858 158.527 72.6573C162.634 74.4288 166.217 76.9451 169.277 80.2063C172.337 83.4675 174.712 87.3327 176.403 91.8017C178.134 96.2305 179 101.122 179 106.477C179 115.053 176.725 123.548 172.176 131.963C167.626 140.337 161.184 148.51 152.85 156.482C144.556 164.414 134.732 172.003 123.378 179.25C122.734 179.653 121.989 180.015 121.144 180.337C120.339 180.7 119.614 180.881 118.97 180.881Z" fill="url(#paint1_radial_1127_3954)"/>
</g>
</g>
<defs>
<filter id="filter0_d_1127_3954" x="-20" y="-15" width="278" height="278" filterUnits="userSpaceOnUse" color-interpolation-filters="sRGB">
<feFlood flood-opacity="0" result="BackgroundImageFix"/>
<feColorMatrix in="SourceAlpha" type="matrix" values="0 0 0 0 0 0 0 0 0 0 0 0 0 0 0 0 0 0 127 0" result="hardAlpha"/>
<feOffset dy="5"/>
<feGaussianBlur stdDeviation="10"/>
<feComposite in2="hardAlpha" operator="out"/>
<feColorMatrix type="matrix" values="0 0 0 0 0 0 0 0 0 0 0 0 0 0 0 0 0 0 0.25 0"/>
<feBlend mode="normal" in2="BackgroundImageFix" result="effect1_dropShadow_1127_3954"/>
<feBlend mode="normal" in="SourceGraphic" in2="effect1_dropShadow_1127_3954" result="shape"/>
</filter>
<filter id="filter1_d_1127_3954" x="39" y="55" width="160" height="150.881" filterUnits="userSpaceOnUse" color-interpolation-filters="sRGB">
<feFlood flood-opacity="0" result="BackgroundImageFix"/>
<feColorMatrix in="SourceAlpha" type="matrix" values="0 0 0 0 0 0 0 0 0 0 0 0 0 0 0 0 0 0 127 0" result="hardAlpha"/>
<feOffset dy="5"/>
<feGaussianBlur stdDeviation="10"/>
<feComposite in2="hardAlpha" operator="out"/>
<feColorMatrix type="matrix" values="0 0 0 0 0 0 0 0 0 0 0 0 0 0 0 0 0 0 0.25 0"/>
<feBlend mode="normal" in2="BackgroundImageFix" result="effect1_dropShadow_1127_3954"/>
<feBlend mode="normal" in="SourceGraphic" in2="effect1_dropShadow_1127_3954" result="shape"/>
</filter>
<radialGradient id="paint0_radial_1127_3954" cx="0" cy="0" r="1" gradientUnits="userSpaceOnUse" gradientTransform="translate(70.2607 60.766) rotate(47.7525) scale(186.41)">
<stop stop-color="#6EFF3B"/>
<stop offset="1" stop-color="#30D158"/>
</radialGradient>
<radialGradient id="paint1_radial_1127_3954" cx="0" cy="0" r="1" gradientUnits="userSpaceOnUse" gradientTransform="translate(81.6492 82.0065) rotate(47.274) scale(126.766 133.308)">
<stop stop-color="white"/>
<stop offset="1" stop-color="#F1EEEE"/>
</radialGradient>
<clipPath id="clip0_1127_3954">
<rect width="238" height="238" fill="white"/>
</clipPath>
</defs>
</svg>
